<svg width="18" height="18" viewBox="0 0 18 18" fill="none" xmlns="http://www.w3.org/2000/svg">
<path d="M14.2502 1H3.8064C2.95583 1 2.20898 1.5831 2.20898 2.27331V15.1479C2.20898 15.3789 2.28615 15.5715 2.41051 15.7202C2.55923 15.8981 2.7987 16 3.05548 15.9999C3.29826 15.9999 3.55675 15.9099 3.79545 15.74L8.46801 12.434C8.61231 12.3312 8.81961 12.2724 9.03514 12.2724C9.25058 12.2724 9.45746 12.3312 9.60219 12.4342L14.2591 15.7395C14.4987 15.9099 14.7393 16 14.9817 16C15.3915 16 15.791 15.7366 15.791 15.1479V2.27331C15.791 1.5831 15.1008 1 14.2502 1Z" fill="#50A398"/>
</svg>
