<svg width="24" height="44" viewBox="0 0 24 44" fill="none" xmlns="http://www.w3.org/2000/svg">
<path fill-rule="evenodd" clip-rule="evenodd" d="M1.09953 1.34964C0.948195 1.50059 0.828131 1.67991 0.74621 1.87733C0.664289 2.07476 0.622122 2.2864 0.622122 2.50014C0.622122 2.71389 0.664289 2.92553 0.74621 3.12295C0.828131 3.32037 0.948195 3.4997 1.09953 3.65064L19.4523 22.0001L1.09953 40.3496C0.794394 40.6548 0.622974 41.0686 0.622974 41.5001C0.622974 41.9317 0.794394 42.3455 1.09953 42.6506C1.40466 42.9558 1.8185 43.1272 2.25002 43.1272C2.68155 43.1272 3.09539 42.9558 3.40053 42.6506L22.9005 23.1506C23.0519 22.9997 23.1719 22.8204 23.2538 22.6229C23.3358 22.4255 23.3779 22.2139 23.3779 22.0001C23.3779 21.7864 23.3358 21.5748 23.2538 21.3773C23.1719 21.1799 23.0519 21.0006 22.9005 20.8496L3.40053 1.34964C3.24958 1.19831 3.07026 1.07825 2.87283 0.996327C2.67541 0.914406 2.46377 0.872238 2.25002 0.872238C2.03628 0.872238 1.82464 0.914406 1.62722 0.996327C1.4298 1.07825 1.25047 1.19831 1.09953 1.34964Z" fill="white"/>
</svg>
