<svg width="24" height="44" viewBox="0 0 24 44" fill="none" xmlns="http://www.w3.org/2000/svg">
<path fill-rule="evenodd" clip-rule="evenodd" d="M22.9005 1.34964C23.0518 1.50059 23.1719 1.67991 23.2538 1.87733C23.3357 2.07476 23.3779 2.2864 23.3779 2.50014C23.3779 2.71389 23.3357 2.92553 23.2538 3.12295C23.1719 3.32037 23.0518 3.4997 22.9005 3.65064L4.54772 22.0001L22.9005 40.3496C23.2056 40.6548 23.377 41.0686 23.377 41.5001C23.377 41.9317 23.2056 42.3455 22.9005 42.6506C22.5953 42.9558 22.1815 43.1272 21.75 43.1272C21.3185 43.1272 20.9046 42.9558 20.5995 42.6506L1.09947 23.1506C0.948144 22.9997 0.828079 22.8204 0.746158 22.6229C0.664237 22.4255 0.62207 22.2139 0.62207 22.0001C0.62207 21.7864 0.664237 21.5748 0.746158 21.3773C0.828079 21.1799 0.948144 21.0006 1.09947 20.8496L20.5995 1.34964C20.7504 1.19831 20.9297 1.07825 21.1272 0.996327C21.3246 0.914406 21.5362 0.872238 21.75 0.872238C21.9637 0.872238 22.1754 0.914406 22.3728 0.996327C22.5702 1.07825 22.7495 1.19831 22.9005 1.34964Z" fill="white"/>
</svg>
