<svg width="22" height="22" viewBox="0 0 22 22" fill="none" xmlns="http://www.w3.org/2000/svg">
<path d="M20.8301 10.693L1.22462 0.863296C1.14494 0.823452 1.05353 0.814078 0.966812 0.835171C0.767593 0.88439 0.643374 1.08595 0.692593 1.28751L2.71291 9.5422C2.74337 9.66642 2.83478 9.7672 2.95666 9.80705L6.41837 10.9953L2.959 12.1836C2.83712 12.2258 2.74572 12.3242 2.71759 12.4485L0.692593 20.7149C0.671499 20.8016 0.680874 20.893 0.720718 20.9703C0.812124 21.1555 1.03712 21.2305 1.22462 21.1391L20.8301 11.3656C20.9028 11.3305 20.9613 11.2695 20.9988 11.1992C21.0903 11.0117 21.0153 10.7867 20.8301 10.693ZM3.00353 18.3664L4.18244 13.5477L11.1012 11.1735C11.1551 11.1547 11.1996 11.1125 11.2184 11.0563C11.2512 10.9578 11.1996 10.8524 11.1012 10.8172L4.18244 8.44533L3.00822 3.64533L17.727 11.0258L3.00353 18.3664Z" fill="white"/>
</svg>
