<svg width="24" height="24" viewBox="0 0 24 24" fill="none" xmlns="http://www.w3.org/2000/svg">
<path fill-rule="evenodd" clip-rule="evenodd" d="M4.5 4.5C4.69891 4.5 4.88968 4.57902 5.03033 4.71967C5.17098 4.86032 5.25 5.05109 5.25 5.25V20.25C5.25 20.4489 5.17098 20.6397 5.03033 20.7803C4.88968 20.921 4.69891 21 4.5 21C4.30109 21 4.11032 20.921 3.96967 20.7803C3.82902 20.6397 3.75 20.4489 3.75 20.25V5.25C3.75 5.05109 3.82902 4.86032 3.96967 4.71967C4.11032 4.57902 4.30109 4.5 4.5 4.5Z" fill="#50A398"/>
<path fill-rule="evenodd" clip-rule="evenodd" d="M8.03097 16.719C8.10082 16.7887 8.15623 16.8714 8.19404 16.9625C8.23185 17.0537 8.25131 17.1513 8.25131 17.25C8.25131 17.3486 8.23185 17.4463 8.19404 17.5374C8.15623 17.6286 8.10082 17.7113 8.03097 17.781L5.03097 20.781C4.9613 20.8508 4.87854 20.9063 4.78742 20.9441C4.6963 20.9819 4.59862 21.0013 4.49997 21.0013C4.40132 21.0013 4.30364 20.9819 4.21252 20.9441C4.1214 20.9063 4.03864 20.8508 3.96897 20.781L0.968971 17.781C0.828141 17.6402 0.749023 17.4492 0.749023 17.25C0.749023 17.0508 0.828141 16.8598 0.968971 16.719C1.1098 16.5782 1.30081 16.4991 1.49997 16.4991C1.69913 16.4991 1.89014 16.5782 2.03097 16.719L4.49997 19.1895L6.96897 16.719C7.03864 16.6492 7.1214 16.5937 7.21252 16.5559C7.30364 16.5181 7.40132 16.4987 7.49997 16.4987C7.59862 16.4987 7.6963 16.5181 7.78742 16.5559C7.87854 16.5937 7.9613 16.6492 8.03097 16.719Z" fill="#50A398"/>
<path fill-rule="evenodd" clip-rule="evenodd" d="M10.5 14.25C10.5 14.0511 10.579 13.8603 10.7197 13.7197C10.8603 13.579 11.0511 13.5 11.25 13.5H15.75C15.9489 13.5 16.1397 13.579 16.2803 13.7197C16.421 13.8603 16.5 14.0511 16.5 14.25C16.5 14.4489 16.421 14.6397 16.2803 14.7803C16.1397 14.921 15.9489 15 15.75 15H11.25C11.0511 15 10.8603 14.921 10.7197 14.7803C10.579 14.6397 10.5 14.4489 10.5 14.25ZM10.5 9.75C10.5 9.55109 10.579 9.36032 10.7197 9.21967C10.8603 9.07902 11.0511 9 11.25 9H18.75C18.9489 9 19.1397 9.07902 19.2803 9.21967C19.421 9.36032 19.5 9.55109 19.5 9.75C19.5 9.94891 19.421 10.1397 19.2803 10.2803C19.1397 10.421 18.9489 10.5 18.75 10.5H11.25C11.0511 10.5 10.8603 10.421 10.7197 10.2803C10.579 10.1397 10.5 9.94891 10.5 9.75ZM10.5 5.25C10.5 5.05109 10.579 4.86032 10.7197 4.71967C10.8603 4.57902 11.0511 4.5 11.25 4.5H21.75C21.9489 4.5 22.1397 4.57902 22.2803 4.71967C22.421 4.86032 22.5 5.05109 22.5 5.25C22.5 5.44891 22.421 5.63968 22.2803 5.78033C22.1397 5.92098 21.9489 6 21.75 6H11.25C11.0511 6 10.8603 5.92098 10.7197 5.78033C10.579 5.63968 10.5 5.44891 10.5 5.25ZM10.5 18.75C10.5 18.5511 10.579 18.3603 10.7197 18.2197C10.8603 18.079 11.0511 18 11.25 18H12.75C12.9489 18 13.1397 18.079 13.2803 18.2197C13.421 18.3603 13.5 18.5511 13.5 18.75C13.5 18.9489 13.421 19.1397 13.2803 19.2803C13.1397 19.421 12.9489 19.5 12.75 19.5H11.25C11.0511 19.5 10.8603 19.421 10.7197 19.2803C10.579 19.1397 10.5 18.9489 10.5 18.75Z" fill="#50A398"/>
<path fill-rule="evenodd" clip-rule="evenodd" d="M8.06161 8.77966C8.13145 8.70999 8.18687 8.62723 8.22468 8.53611C8.26249 8.44499 8.28195 8.34731 8.28195 8.24866C8.28195 8.15001 8.26249 8.05233 8.22468 7.96121C8.18687 7.87009 8.13145 7.78733 8.06161 7.71766L5.06161 4.71766C4.99194 4.64781 4.90918 4.5924 4.81806 4.55459C4.72694 4.51678 4.62926 4.49732 4.53061 4.49732C4.43196 4.49732 4.33427 4.51678 4.24316 4.55459C4.15204 4.5924 4.06928 4.64781 3.99961 4.71766L0.999607 7.71766C0.858777 7.85849 0.77966 8.0495 0.77966 8.24866C0.77966 8.44782 0.858777 8.63883 0.999607 8.77966C1.14044 8.92049 1.33144 8.99961 1.53061 8.99961C1.72977 8.99961 1.92078 8.92049 2.06161 8.77966L4.53061 6.30916L6.99961 8.77966C7.06927 8.8495 7.15204 8.90492 7.24316 8.94273C7.33427 8.98054 7.43196 9 7.53061 9C7.62926 9 7.72694 8.98054 7.81806 8.94273C7.90918 8.90492 7.99194 8.8495 8.06161 8.77966Z" fill="#50A398"/>
</svg>
