<svg width="18" height="18" viewBox="0 0 18 18" fill="none" xmlns="http://www.w3.org/2000/svg">
<path d="M3.05548 15.4999H3.05535C2.92418 15.5 2.8342 15.4475 2.79406 15.3995C2.74435 15.34 2.70898 15.2607 2.70898 15.1479V2.27331C2.70898 2.11713 2.79431 1.93201 2.99913 1.76981C3.20242 1.60882 3.492 1.5 3.8064 1.5H14.2502C14.9146 1.5 15.291 1.94136 15.291 2.27331V15.1479C15.291 15.3216 15.2363 15.3946 15.201 15.4273C15.1575 15.4674 15.0834 15.5 14.9817 15.5C14.8694 15.5 14.7281 15.4595 14.549 15.332L14.5485 15.3317L9.89209 12.0269L9.60219 12.4342L9.89158 12.0265L9.89197 12.0268C9.64555 11.8515 9.33137 11.7724 9.03514 11.7724C8.7395 11.7724 8.42502 11.8511 8.17883 12.0261C8.17858 12.0262 8.17832 12.0264 8.17807 12.0266L3.50666 15.3318L3.50549 15.3326C3.33488 15.4541 3.17568 15.4999 3.05548 15.4999Z" stroke="#9CA3A1"/>
</svg>
