<svg width="24" height="17" viewBox="0 0 24 17" fill="none" xmlns="http://www.w3.org/2000/svg">
<g clip-path="url(#clip0_520_21533)">
<path d="M13.8462 12.7385C14.8658 12.7385 15.6923 10.7473 15.6923 8.29111C15.6923 5.8349 14.8658 3.84375 13.8462 3.84375C12.8266 3.84375 12 5.8349 12 8.29111C12 10.7473 12.8266 12.7385 13.8462 12.7385Z" stroke="#50A398" stroke-width="1.5"/>
<path d="M19.2886 14.1903C19.8514 14.1903 20.3077 11.5038 20.3077 8.1897C20.3077 4.87565 19.8514 2.18909 19.2886 2.18909C18.7258 2.18909 18.2695 4.87565 18.2695 8.1897C18.2695 11.5038 18.7258 14.1903 19.2886 14.1903Z" stroke="#50A398" stroke-width="1.5"/>
<path d="M23.136 0.368545L1.31634 7.88166C1.19583 7.92315 1.13178 8.05448 1.17328 8.17498C1.21477 8.29549 1.3461 8.35954 1.4666 8.31805L23.2863 0.804938C23.4068 0.763444 23.4708 0.632117 23.4293 0.51161C23.3878 0.391104 23.2565 0.327051 23.136 0.368545Z" stroke="#50A398"/>
<path d="M23.136 16.213L1.31634 8.69989C1.19583 8.65839 1.13178 8.52707 1.17328 8.40656C1.21477 8.28605 1.3461 8.222 1.4666 8.26349L23.2863 15.7766C23.4068 15.8181 23.4708 15.9494 23.4293 16.0699C23.3878 16.1904 23.2565 16.2545 23.136 16.213Z" stroke="#50A398"/>
</g>
<defs>
<clipPath id="clip0_520_21533">
<rect width="24" height="16.6154" fill="white"/>
</clipPath>
</defs>
</svg>
