<svg width="18" height="18" viewBox="0 0 18 18" fill="none" xmlns="http://www.w3.org/2000/svg">
<path d="M8.55392 4.86813L8.97325 5.51585L9.39313 4.86849C10.655 2.92303 12.401 2.55138 13.8069 3.09146C15.2446 3.64372 16.4288 5.18729 16.4288 7.29469C16.4288 8.00947 16.0469 8.89776 15.3704 9.88656C14.704 10.8604 13.7993 11.8642 12.8585 12.7963C11.92 13.7262 10.9577 14.5729 10.1836 15.2338C9.90557 15.4712 9.6535 15.6832 9.43459 15.8673C9.34825 15.9399 9.26706 16.0082 9.19147 16.072C9.113 16.1382 9.03866 16.2011 8.97018 16.2598C8.89711 16.1991 8.81767 16.1342 8.73406 16.0662C8.62457 15.9771 8.50505 15.8806 8.37576 15.7761C8.17365 15.6129 7.94764 15.4303 7.6987 15.2269C6.88913 14.5654 5.87981 13.7183 4.8941 12.7878C3.90606 11.8552 2.95483 10.851 2.25405 9.87691C1.54145 8.88639 1.14307 8.00171 1.14307 7.29469C1.14307 5.18906 2.4036 3.63788 3.94495 3.08187C5.46295 2.53428 7.30197 2.93431 8.55392 4.86813Z" stroke="#9CA3A1"/>
</svg>
