<svg width="16" height="20" viewBox="0 0 16 20" fill="none" xmlns="http://www.w3.org/2000/svg">
<path d="M13 5.99988V4.99988C13 2.24288 10.757 -0.00012207 8 -0.00012207C5.243 -0.00012207 3 2.24288 3 4.99988V7.99988H2C0.897 7.99988 0 8.89688 0 9.99988V17.9999C0 19.1029 0.897 19.9999 2 19.9999H14C15.103 19.9999 16 19.1029 16 17.9999V9.99988C16 8.89688 15.103 7.99988 14 7.99988H5V4.99988C5 3.34588 6.346 1.99988 8 1.99988C9.654 1.99988 11 3.34588 11 4.99988V5.99988H13ZM14 9.99988L14.002 17.9999H2V9.99988H14Z" fill="#50A398"/>
</svg>
