<svg width="24" height="24" viewBox="0 0 24 24" fill="none" xmlns="http://www.w3.org/2000/svg">
<path d="M17.7031 12.2901C17.6104 12.1972 17.5002 12.1234 17.3789 12.0732C17.2576 12.0229 17.1276 11.997 16.9963 11.997C16.865 11.997 16.735 12.0229 16.6138 12.0732C16.4925 12.1234 16.3823 12.1972 16.2895 12.2901L14.696 13.8836C13.9572 13.6637 12.5786 13.1638 11.7049 12.2901C10.8311 11.4163 10.3312 10.0377 10.1113 9.29894L11.7049 7.70539C11.7978 7.61263 11.8715 7.50246 11.9218 7.38118C11.9721 7.2599 11.998 7.12989 11.998 6.99859C11.998 6.8673 11.9721 6.73729 11.9218 6.61601C11.8715 6.49473 11.7978 6.38456 11.7049 6.29179L7.70599 2.29293C7.61323 2.20002 7.50306 2.1263 7.38178 2.076C7.2605 2.02571 7.13049 1.99982 6.99919 1.99982C6.8679 1.99982 6.73789 2.02571 6.61661 2.076C6.49533 2.1263 6.38516 2.20002 6.29239 2.29293L3.58117 5.00416C3.20128 5.38405 2.98734 5.9059 2.99533 6.43875C3.01833 7.86235 3.39522 12.8069 7.29211 16.7038C11.189 20.6007 16.1336 20.9766 17.5582 21.0006H17.5862C18.114 21.0006 18.6129 20.7927 18.9908 20.4148L21.702 17.7035C21.7949 17.6108 21.8686 17.5006 21.9189 17.3793C21.9692 17.258 21.9951 17.128 21.9951 16.9967C21.9951 16.8654 21.9692 16.7354 21.9189 16.6142C21.8686 16.4929 21.7949 16.3827 21.702 16.2899L17.7031 12.2901ZM17.5762 19.0002C16.3285 18.9792 12.0597 18.6443 8.70571 15.2892C5.34066 11.9242 5.01476 7.64041 4.99476 6.41776L6.99919 4.41333L9.58446 6.99859L8.29182 8.29122C8.17432 8.40864 8.08792 8.55349 8.04045 8.71267C7.99297 8.87186 7.98591 9.04036 8.0199 9.20296C8.04389 9.31793 8.63073 12.0442 10.2903 13.7037C11.9498 15.3632 14.676 15.95 14.791 15.974C14.9535 16.009 15.1221 16.0025 15.2815 15.9551C15.4408 15.9078 15.5857 15.8211 15.7027 15.7031L16.9963 14.4105L19.5816 16.9957L17.5762 19.0002Z" fill="#50A398"/>
</svg>
