<svg width="24" height="24" viewBox="0 0 24 24" fill="none" xmlns="http://www.w3.org/2000/svg">
<path d="M12 2C9.34784 2 6.8043 3.05357 4.92893 4.92893C3.05357 6.8043 2 9.34784 2 12C2 14.6522 3.05357 17.1957 4.92893 19.0711C6.8043 20.9464 9.34784 22 12 22C14.6522 22 17.1957 20.9464 19.0711 19.0711C20.9464 17.1957 22 14.6522 22 12C22 9.34784 20.9464 6.8043 19.0711 4.92893C17.1957 3.05357 14.6522 2 12 2V2ZM3.23333 12.7556H6.02222C6.06667 13.7667 6.20778 14.7711 6.44444 15.7556H4.04444C3.59689 14.8121 3.32218 13.796 3.23333 12.7556ZM12.7556 6.75556V3.32222C13.8263 3.72914 14.7062 4.5218 15.2222 5.54444C15.45 5.93 15.6511 6.33111 15.8222 6.74444L12.7556 6.75556ZM16.3333 8.25556C16.5911 9.23667 16.7444 10.2422 16.7889 11.2556H12.7556V8.25556H16.3333ZM11.2444 3.32222V6.75556H8.17778C8.34918 6.34188 8.54968 5.94088 8.77778 5.55556C9.29163 4.52873 10.1718 3.73185 11.2444 3.32222ZM11.2444 8.25556V11.2556H7.22222C7.26667 10.2422 7.42 9.23667 7.67778 8.25556H11.2444ZM6.02222 11.2444H3.23333C3.32218 10.204 3.59689 9.18791 4.04444 8.24444H6.44444C6.20732 9.2285 6.06593 10.2332 6.02222 11.2444ZM7.22222 12.7556H11.2444V15.7556H7.67778C7.42004 14.7745 7.26733 13.7689 7.22222 12.7556ZM11.2556 17.2V20.6333C10.1848 20.2264 9.30494 19.4338 8.78889 18.4111C8.56079 18.0258 8.36029 17.6248 8.18889 17.2111L11.2556 17.2ZM12.7556 20.6333V17.2556H15.8222C15.6508 17.6692 15.4503 18.0702 15.2222 18.4556C14.7062 19.4782 13.8263 20.2709 12.7556 20.6778V20.6333ZM12.7556 15.7V12.7H16.7778C16.7327 13.7133 16.58 14.719 16.3222 15.7H12.7556ZM17.9889 12.7H20.7778C20.6889 13.7405 20.4142 14.7565 19.9667 15.7H17.5556C17.7889 14.7333 17.93 13.7478 17.9778 12.7556L17.9889 12.7ZM17.9889 11.2C17.938 10.207 17.7929 9.2211 17.5556 8.25556H19.9556C20.4033 9.2 20.6778 10.2156 20.7667 11.2556L17.9889 11.2ZM19.1 6.75556H17.1111C16.7512 5.74478 16.2296 4.79914 15.5667 3.95556C16.9493 4.5762 18.1503 5.54006 19.0556 6.75556H19.1ZM8.43333 3.95556C7.77036 4.79914 7.24875 5.74478 6.88889 6.75556H4.94444C5.84969 5.54006 7.05069 4.5762 8.43333 3.95556ZM4.93333 17.2889H6.88889C7.24875 18.2997 7.77036 19.2453 8.43333 20.0889C7.04686 19.4589 5.8455 18.4833 4.94444 17.2556L4.93333 17.2889ZM15.5556 20.0889C16.2185 19.2453 16.7401 18.2997 17.1 17.2889H19.0556C18.1448 18.4881 16.9443 19.4363 15.5667 20.0444L15.5556 20.0889Z" fill="#50A398"/>
</svg>
