<svg width="32" height="32" viewBox="0 0 32 32" fill="none" xmlns="http://www.w3.org/2000/svg">
<path d="M29.9487 7.79495H24.135L22.896 4.49099C22.7159 4.01058 22.2567 3.69238 21.7436 3.69238H10.2564C9.74334 3.69238 9.2841 4.01058 9.104 4.49099L7.86503 7.79495H2.05128C0.9184 7.79495 0 8.71335 0 9.84623V26.2565C0 27.3894 0.9184 28.3078 2.05128 28.3078H29.9487C31.0816 28.3078 32 27.3894 32 26.2565V9.84623C32 8.71335 31.0816 7.79495 29.9487 7.79495ZM29.5385 25.8462H2.46154V10.2565H9.57095L11.1093 6.15392H20.8907L22.4291 10.2565H29.5385V25.8462Z" fill="#50A398"/>
<path d="M16 11.4872C12.7198 11.4872 10.0513 14.1557 10.0513 17.4359C10.0513 20.7161 12.7198 23.3846 16 23.3846C19.2802 23.3846 21.9487 20.7161 21.9487 17.4359C21.9487 14.1557 19.2802 11.4872 16 11.4872ZM16 20.6391C14.2338 20.6391 12.7969 19.2021 12.7969 17.4359C12.7969 15.6697 14.2338 14.2327 16 14.2327C17.7661 14.2327 19.2031 15.6697 19.2031 17.4359C19.2031 19.2021 17.7661 20.6391 16 20.6391Z" fill="#50A398"/>
</svg>
