<svg width="35" height="18" viewBox="0 0 35 18" fill="none" xmlns="http://www.w3.org/2000/svg">
<rect width="35" height="18" rx="4" fill="#50A398"/>
<path d="M9.20218 5.29994H6.03418V12.9999H7.46418V10.7779H9.20218C11.2262 10.7779 12.4802 9.73294 12.4802 8.03894C12.4802 6.33394 11.2262 5.29994 9.20218 5.29994ZM9.13618 9.56794H7.46418V6.50994H9.13618C10.3902 6.50994 11.0392 7.07094 11.0392 8.03894C11.0392 9.00694 10.3902 9.56794 9.13618 9.56794Z" fill="white"/>
<path d="M20.4862 12.9999L18.7152 10.4699C19.7602 10.0629 20.3542 9.20494 20.3542 8.03894C20.3542 6.33394 19.1002 5.29994 17.0762 5.29994H13.9082V12.9999H15.3382V10.7559H17.0762C17.1752 10.7559 17.2742 10.7559 17.3732 10.7449L18.9462 12.9999H20.4862ZM18.9132 8.03894C18.9132 9.00694 18.2642 9.57894 17.0102 9.57894H15.3382V6.50994H17.0102C18.2642 6.50994 18.9132 7.07094 18.9132 8.03894Z" fill="white"/>
<path d="M25.5511 13.1099C27.9381 13.1099 29.6981 11.4379 29.6981 9.14994C29.6981 6.86194 27.9381 5.18994 25.5511 5.18994C23.1641 5.18994 21.4041 6.87294 21.4041 9.14994C21.4041 11.4269 23.1641 13.1099 25.5511 13.1099ZM25.5511 11.8559C24.0001 11.8559 22.8451 10.7229 22.8451 9.14994C22.8451 7.57694 24.0001 6.44394 25.5511 6.44394C27.1021 6.44394 28.2571 7.57694 28.2571 9.14994C28.2571 10.7229 27.1021 11.8559 25.5511 11.8559Z" fill="white"/>
</svg>
