<svg width="18" height="18" viewBox="0 0 18 18" fill="none" xmlns="http://www.w3.org/2000/svg">
<path d="M8.94988 8.65005C10.2999 8.65005 11.3499 7.55005 11.3499 6.20005C11.3499 4.85005 10.2499 3.80005 8.89988 3.80005C7.54988 3.80005 6.49988 4.90005 6.49988 6.20005C6.49988 7.55005 7.59988 8.65005 8.94988 8.65005ZM8.89988 4.80005C8.94988 4.80005 8.94988 4.80005 8.89988 4.80005C9.69988 4.80005 10.3499 5.45005 10.3499 6.25005C10.3499 7.05005 9.69988 7.65005 8.89988 7.65005C8.09988 7.65005 7.49988 7.00005 7.49988 6.25005C7.49988 5.45005 8.14988 4.80005 8.89988 4.80005Z" fill="#50A398"/>
<path d="M16.35 8.34995C15.4 7.49995 14.15 7.04995 12.85 7.09995H12.45C12.35 7.49995 12.2 7.84995 12 8.14995C12.3 8.09995 12.55 8.09995 12.85 8.09995C13.8 8.04995 14.75 8.34995 15.5 8.89995V12.5H16.5V8.49995L16.35 8.34995Z" fill="#50A398"/>
<path d="M11.6999 3.90002C11.9499 3.30002 12.6499 3.00002 13.2999 3.25002C13.8999 3.50002 14.1999 4.20002 13.9499 4.85002C13.7499 5.30002 13.2999 5.60002 12.8499 5.60002C12.7499 5.60002 12.5999 5.60002 12.4999 5.55002C12.5499 5.80002 12.5499 6.05002 12.5499 6.25002V6.55002C12.6499 6.55002 12.7499 6.60002 12.8499 6.60002C14.0999 6.60002 15.0999 5.60002 15.0999 4.40002C15.0999 3.15002 14.0999 2.15002 12.8999 2.15002C12.0999 2.15002 11.3999 2.55002 10.9999 3.25002C11.2499 3.40002 11.4999 3.60002 11.6999 3.90002Z" fill="#50A398"/>
<path d="M6 8.20001C5.8 7.90001 5.65 7.55001 5.55 7.15001H5.15C3.85 7.10001 2.6 7.55001 1.65 8.35001L1.5 8.50001V12.5H2.5V8.90001C3.3 8.35001 4.2 8.05001 5.15 8.10001C5.45 8.10001 5.75 8.15001 6 8.20001Z" fill="#50A398"/>
<path d="M5.15013 6.54996C5.25013 6.54996 5.35013 6.54996 5.45013 6.49996V6.19996C5.45013 5.94996 5.45013 5.69996 5.50013 5.49996C5.40013 5.54996 5.25013 5.54996 5.15013 5.54996C4.50013 5.54996 3.95013 4.99996 3.95013 4.34996C3.95013 3.69996 4.50013 3.14996 5.15013 3.14996C5.65013 3.14996 6.10013 3.44996 6.30013 3.89996C6.50013 3.64996 6.80013 3.39996 7.05013 3.19996C6.40013 2.14996 5.05013 1.79996 4.00013 2.44996C2.95013 3.09996 2.60013 4.44996 3.25013 5.49996C3.65013 6.14996 4.35013 6.54996 5.15013 6.54996Z" fill="#50A398"/>
<path d="M13.0499 11.35L12.9499 11.2C11.9499 10.1 10.5499 9.45 9.04988 9.5C7.54988 9.45 6.09988 10.1 5.09988 11.2L4.99988 11.35V15.15C4.99988 15.6 5.34988 16 5.84988 16H12.2499C12.6999 16 13.0999 15.6 13.0999 15.15V11.35H13.0499ZM12.0499 15H5.99988V11.7C6.79988 10.9 7.89988 10.5 9.04988 10.5C10.1499 10.45 11.2499 10.9 12.0499 11.7V15Z" fill="#50A398"/>
</svg>
