<svg width="24" height="24" viewBox="0 0 24 24" fill="none" xmlns="http://www.w3.org/2000/svg">
<path d="M11.024 11.536L10 10L8 13H17L13.5 8L11.024 11.536Z" fill="#50A398"/>
<path d="M9.503 8.9999C10.3331 8.9999 11.006 8.32698 11.006 7.4969C11.006 6.66681 10.3331 5.9939 9.503 5.9939C8.67292 5.9939 8 6.66681 8 7.4969C8 8.32698 8.67292 8.9999 9.503 8.9999Z" fill="#50A398"/>
<path d="M19 2H6C4.794 2 3 2.799 3 5V19C3 21.201 4.794 22 6 22H21V20H6.012C5.55 19.988 5 19.806 5 19C5 18.194 5.55 18.012 6.012 18H21V4C21 2.897 20.103 2 19 2ZM19 16H5V5C5 4.194 5.55 4.012 6 4H19V16Z" fill="#50A398"/>
</svg>
