<svg width="32" height="32" viewBox="0 0 32 32" fill="none" xmlns="http://www.w3.org/2000/svg">
<path d="M29.9487 7.79489H24.135L22.896 4.49093C22.7159 4.01052 22.2567 3.69232 21.7436 3.69232H10.2564C9.74334 3.69232 9.2841 4.01052 9.104 4.49093L7.86503 7.79489H2.05128C0.9184 7.79489 0 8.71329 0 9.84617V26.2564C0 27.3893 0.9184 28.3077 2.05128 28.3077H29.9487C31.0816 28.3077 32 27.3893 32 26.2564V9.84617C32 8.71329 31.0816 7.79489 29.9487 7.79489ZM29.5385 25.8462H2.46154V10.2564H9.57095L11.1093 6.15386H20.8907L22.4291 10.2564H29.5385V25.8462Z" fill="white"/>
<path d="M16.0005 11.4872C12.7203 11.4872 10.0518 14.1557 10.0518 17.4359C10.0518 20.7161 12.7203 23.3846 16.0005 23.3846C19.2806 23.3846 21.9492 20.7161 21.9492 17.4359C21.9492 14.1557 19.2806 11.4872 16.0005 11.4872ZM16.0005 20.6391C14.2343 20.6391 12.7974 19.2021 12.7974 17.4359C12.7974 15.6697 14.2343 14.2327 16.0005 14.2327C17.7666 14.2327 19.2036 15.6697 19.2036 17.4359C19.2036 19.2021 17.7666 20.6391 16.0005 20.6391Z" fill="white"/>
</svg>
