<svg width="14" height="15" viewBox="0 0 14 15" fill="none" xmlns="http://www.w3.org/2000/svg">
<path d="M12.2502 0H1.8064C0.955826 0 0.208984 0.583105 0.208984 1.27331V14.1479C0.208984 14.3789 0.286147 14.5715 0.410508 14.7202C0.559231 14.8981 0.798699 15 1.05548 14.9999C1.29826 14.9999 1.55675 14.9099 1.79545 14.74L6.46801 11.434C6.61231 11.3312 6.81961 11.2724 7.03514 11.2724C7.25058 11.2724 7.45746 11.3312 7.60219 11.4342L12.2591 14.7395C12.4987 14.9099 12.7393 15 12.9817 15C13.3915 15 13.791 14.7366 13.791 14.1479V1.27331C13.791 0.583105 13.1008 0 12.2502 0Z" fill="#50A398"/>
</svg>
