<svg width="14" height="15" viewBox="0 0 14 15" fill="none" xmlns="http://www.w3.org/2000/svg">
<path d="M1.05548 14.4999H1.05535C0.924179 14.5 0.834198 14.4475 0.794062 14.3995C0.744354 14.34 0.708984 14.2607 0.708984 14.1479V1.27331C0.708984 1.11713 0.794311 0.932006 0.999134 0.769807C1.20242 0.608821 1.492 0.5 1.8064 0.5H12.2502C12.9146 0.5 13.291 0.941358 13.291 1.27331V14.1479C13.291 14.3216 13.2363 14.3946 13.201 14.4273C13.1575 14.4674 13.0834 14.5 12.9817 14.5C12.8694 14.5 12.7281 14.4595 12.549 14.332L12.5485 14.3317L7.89209 11.0269L7.60219 11.4342L7.89158 11.0265L7.89197 11.0268C7.64555 10.8515 7.33137 10.7724 7.03514 10.7724C6.7395 10.7724 6.42502 10.8511 6.17883 11.0261C6.17858 11.0262 6.17832 11.0264 6.17807 11.0266L1.50666 14.3318L1.50549 14.3326C1.33488 14.4541 1.17568 14.4999 1.05548 14.4999Z" stroke="#D2D9D8"/>
</svg>
