<svg width="17" height="15" viewBox="0 0 17 15" fill="none" xmlns="http://www.w3.org/2000/svg">
<path d="M8.5537 2.86813L8.97303 3.51585L9.39291 2.86849C10.6547 0.923032 12.4008 0.55138 13.8067 1.09146C15.2443 1.64372 16.4286 3.18729 16.4286 5.29469C16.4286 6.00947 16.0467 6.89776 15.3701 7.88656C14.7038 8.86041 13.7991 9.86418 12.8583 10.7963C11.9197 11.7262 10.9575 12.5729 10.1834 13.2338C9.90536 13.4712 9.65329 13.6832 9.43438 13.8673C9.34803 13.9399 9.26684 14.0082 9.19126 14.072C9.11279 14.1382 9.03844 14.2011 8.96996 14.2598C8.89689 14.1991 8.81745 14.1342 8.73384 14.0662C8.62435 13.9771 8.50484 13.8806 8.37555 13.7761C8.17343 13.6129 7.94743 13.4303 7.69849 13.2269C6.88891 12.5654 5.8796 11.7183 4.89389 10.7878C3.90585 9.8552 2.95461 8.851 2.25383 7.87691C1.54123 6.88639 1.14285 6.00171 1.14285 5.29469C1.14285 3.18906 2.40339 1.63788 3.94473 1.08187C5.46273 0.534275 7.30176 0.934313 8.5537 2.86813Z" stroke="#D2D9D8"/>
</svg>
